<?xml version="1.0" standalone="no"?>
<!DOCTYPE svg PUBLIC "-//W3C//DTD SVG 20010904//EN"
 "http://www.w3.org/TR/2001/REC-SVG-20010904/DTD/svg10.dtd">
<svg version="1.0" xmlns="http://www.w3.org/2000/svg"
 width="1000.000000pt" height="1000.000000pt" viewBox="0 0 1000.000000 1000.000000"
 preserveAspectRatio="xMidYMid meet">

<g transform="translate(0.000000,1000.000000) scale(0.100000,-0.100000)"
fill="#000000" stroke="none">
<path d="M1610 9608 c-77 -6 -131 -14 -140 -22 -8 -8 -36 -17 -62 -20 -26 -4
-58 -16 -71 -26 -14 -11 -54 -26 -89 -33 -67 -14 -101 -32 -135 -70 -12 -15
-37 -27 -61 -31 -30 -4 -45 -13 -58 -34 -16 -28 -86 -78 -131 -95 -13 -5 -23
-13 -23 -18 0 -15 -71 -89 -85 -89 -7 0 -28 -26 -45 -57 -18 -32 -50 -74 -71
-94 -23 -23 -42 -53 -49 -80 -7 -23 -23 -51 -36 -62 -33 -25 -50 -61 -63 -130
-6 -31 -19 -69 -30 -84 -11 -16 -25 -50 -31 -78 -6 -27 -15 -54 -20 -60 -29
-36 -32 -344 -33 -3535 -2 -3401 -1 -3486 42 -3581 11 -24 21 -53 21 -64 0
-11 8 -28 18 -36 11 -9 25 -48 36 -97 15 -71 22 -84 46 -99 21 -12 35 -34 52
-81 17 -48 33 -73 63 -99 24 -20 44 -48 51 -71 8 -29 18 -39 45 -48 31 -10 40
-22 69 -84 4 -8 19 -16 34 -18 19 -2 37 -17 59 -48 18 -25 42 -47 57 -51 28
-7 92 -46 130 -79 14 -12 39 -25 55 -28 17 -4 66 -25 110 -47 45 -21 88 -39
98 -39 9 0 25 -4 35 -9 9 -5 53 -14 96 -20 44 -6 84 -15 90 -20 6 -4 45 -12
86 -17 95 -11 6566 -12 6675 -1 44 5 98 15 120 22 22 7 65 17 95 20 30 4 61
11 70 15 8 5 41 16 72 25 32 9 68 25 81 35 13 11 44 24 67 29 24 5 46 14 49
19 3 5 22 17 41 27 19 10 40 25 47 34 6 9 30 20 53 26 36 9 44 16 54 44 12 36
24 46 68 56 22 4 30 14 38 45 9 34 16 41 51 50 22 6 41 16 43 23 17 63 23 73
56 83 29 10 36 18 45 52 5 22 22 52 38 66 15 14 27 30 27 36 0 7 9 23 20 37
11 14 20 33 20 41 0 9 16 48 36 88 36 74 45 99 69 209 7 33 18 74 23 90 6 17
16 71 22 120 22 185 18 6537 -5 6710 -3 28 -10 59 -14 70 -14 34 -31 114 -31
145 0 16 -4 32 -10 35 -5 3 -10 16 -10 27 0 21 -21 73 -60 148 -10 19 -21 49
-25 67 -3 17 -13 37 -22 44 -23 19 -79 110 -86 141 -4 16 -22 36 -44 49 -45
27 -53 37 -53 66 0 17 -12 28 -47 45 -36 18 -49 31 -57 58 -9 28 -18 36 -49
43 -25 6 -46 21 -65 45 -26 34 -109 82 -144 82 -9 0 -26 15 -37 34 -19 31 -28
35 -109 52 -53 11 -92 24 -99 35 -7 9 -31 19 -53 23 -23 4 -51 13 -64 21 -15
10 -74 18 -181 25 -204 13 -6596 11 -6775 -2z m2500 -18 c0 -7 -417 -10 -1252
-8 -689 0 -1233 4 -1208 8 75 11 2460 12 2460 0z m897 -1210 c6 -14 22 -47 35
-75 l23 -50 -4 -2170 c-3 -2342 0 -2204 -54 -2315 -20 -40 -26 -45 -59 -48
-27 -2 -41 2 -56 18 -11 12 -35 29 -53 38 -19 9 -44 33 -57 52 -12 19 -38 43
-56 53 -19 10 -40 31 -46 48 -7 17 -31 40 -55 55 -25 14 -46 35 -49 48 -3 14
-27 37 -56 56 -27 18 -50 36 -50 42 0 5 -44 51 -97 101 -113 107 -145 138
-194 192 -20 22 -51 54 -68 70 -17 17 -33 37 -36 46 -3 9 -19 22 -36 29 -17 7
-40 31 -55 55 -14 25 -39 50 -58 59 -19 9 -39 29 -46 46 -7 18 -30 41 -55 56
-26 15 -45 35 -49 49 -4 15 -24 35 -51 51 -25 14 -52 39 -61 55 -8 16 -32 40
-53 54 -21 14 -43 37 -49 50 l-12 25 -420 0 -420 0 -5 23 c-3 12 -4 465 -3
1007 l3 985 420 2 c452 2 454 2 481 56 8 15 29 36 45 46 17 10 42 35 55 55 14
20 38 43 54 51 16 8 37 29 45 45 9 17 33 41 55 55 22 14 46 38 54 54 9 16 31
38 51 49 20 13 35 29 35 40 0 21 22 43 63 60 15 6 33 24 39 39 17 41 39 63 60
63 11 0 29 17 46 45 14 24 39 50 54 56 15 6 36 26 47 44 11 19 33 41 49 49 16
8 39 31 50 50 11 19 34 42 51 51 17 8 38 29 46 46 9 17 32 40 51 51 19 11 42
34 50 50 8 16 30 38 49 49 18 11 38 32 45 48 6 15 29 38 52 51 25 14 44 34 50
52 14 40 76 68 143 65 42 -2 51 -6 62 -27z m1542 -660 c30 -5 51 -16 62 -31
22 -29 33 -41 80 -79 20 -17 40 -41 43 -54 3 -13 21 -33 39 -44 22 -12 37 -31
43 -53 6 -24 19 -38 42 -49 24 -11 35 -25 44 -55 7 -22 23 -48 35 -58 13 -10
39 -53 59 -95 20 -42 46 -87 56 -99 11 -12 30 -50 42 -85 12 -35 30 -76 39
-93 37 -69 49 -104 62 -177 7 -42 24 -102 38 -135 44 -104 47 -126 59 -334 14
-250 0 -586 -27 -659 -9 -25 -21 -61 -27 -80 -5 -19 -14 -40 -20 -47 -5 -6
-15 -50 -23 -96 -10 -61 -25 -105 -54 -162 -23 -43 -41 -84 -41 -91 0 -19 -57
-129 -75 -144 -8 -7 -17 -27 -21 -45 -3 -18 -19 -45 -34 -60 -16 -16 -41 -52
-56 -82 -16 -30 -45 -71 -66 -91 -21 -20 -43 -51 -49 -69 -6 -20 -20 -35 -38
-41 -19 -7 -35 -25 -50 -56 -17 -34 -30 -48 -52 -54 -20 -5 -37 -20 -52 -47
-22 -40 -23 -40 -98 -49 -100 -11 -182 5 -207 41 -17 24 -33 42 -70 74 -10 8
-24 43 -32 77 -18 86 0 173 42 203 15 11 35 36 43 55 10 23 26 39 49 49 28 12
37 23 46 55 8 28 18 44 35 50 14 5 31 25 39 43 8 19 19 38 25 41 6 4 16 27 22
50 8 33 18 46 43 58 29 14 33 23 50 97 16 68 24 86 49 106 29 22 33 33 53 152
13 70 30 155 39 188 33 123 37 142 45 233 12 128 -1 253 -44 422 -20 80 -42
180 -48 224 -10 64 -16 80 -34 88 -22 10 -55 87 -68 156 -3 18 -21 47 -39 65
-18 19 -44 60 -58 93 -17 38 -37 66 -57 79 -17 11 -33 31 -37 44 -6 23 -35 57
-121 145 -49 50 -84 122 -84 173 1 79 16 123 54 158 20 18 36 40 36 48 0 9 6
19 12 23 27 17 155 43 183 38 17 -4 50 -10 74 -14z m-914 -450 c23 -5 49 -20
61 -35 11 -14 34 -29 50 -34 21 -5 35 -19 51 -54 17 -34 32 -51 58 -61 19 -8
35 -22 35 -31 0 -25 59 -122 85 -139 15 -10 25 -29 30 -55 3 -22 17 -49 31
-62 13 -12 24 -30 24 -39 0 -9 11 -31 25 -50 15 -20 25 -47 25 -66 0 -18 4
-35 9 -39 5 -3 13 -20 16 -38 4 -17 15 -45 25 -62 22 -36 53 -293 53 -435 0
-181 -34 -419 -68 -475 -7 -11 -22 -53 -34 -93 -12 -40 -42 -106 -66 -146 -25
-40 -45 -82 -45 -93 0 -23 -16 -44 -51 -65 -15 -10 -30 -33 -38 -58 -9 -30
-22 -47 -47 -62 -19 -11 -34 -24 -34 -29 0 -4 -18 -34 -40 -65 -48 -68 -95
-93 -192 -101 -47 -4 -85 -1 -133 12 -59 16 -68 22 -81 53 -8 20 -24 42 -35
50 -29 20 -41 58 -41 133 1 59 5 73 35 120 19 30 59 81 90 114 30 33 57 70 61
81 4 12 22 37 40 56 21 22 41 57 52 94 10 32 27 73 39 89 45 63 63 172 64 390
0 194 -15 286 -62 375 -18 36 -37 82 -41 103 -4 23 -16 43 -31 53 -14 9 -25
23 -25 30 0 19 -64 105 -122 164 -27 27 -48 53 -48 58 0 6 -12 25 -27 42 -24
29 -27 40 -27 109 0 73 2 80 40 133 26 38 60 69 104 97 69 43 106 50 185 31z
m2811 -4560 l27 -10 -5 -135 c-3 -101 -2 -135 7 -135 7 0 15 13 18 29 3 16 14
31 23 35 37 14 160 17 208 4 41 -11 51 -18 59 -43 5 -16 19 -40 31 -53 20 -22
21 -36 24 -268 3 -184 1 -248 -8 -259 -9 -11 -34 -15 -99 -15 -47 0 -91 4 -97
8 -7 4 -13 79 -16 214 -4 145 -9 212 -18 223 -15 18 -69 20 -105 3 l-25 -11 0
-209 0 -208 -26 -10 c-36 -14 -157 -13 -172 2 -9 9 -12 116 -12 420 0 377 1
408 18 417 22 14 133 14 168 1z m-2921 -31 c73 -38 75 -42 75 -143 0 -103 -10
-132 -31 -97 -37 60 -205 92 -336 65 -19 -4 -23 -11 -23 -44 0 -21 4 -41 9
-44 4 -3 41 -10 82 -16 101 -15 166 -37 184 -63 8 -12 34 -27 57 -32 39 -10
44 -15 55 -55 7 -24 17 -48 23 -54 19 -19 11 -109 -18 -181 -34 -88 -36 -91
-67 -99 -14 -4 -58 -22 -98 -42 -67 -33 -78 -35 -166 -35 -92 1 -152 12 -180
35 -8 6 -35 16 -60 21 l-46 10 -3 99 c-1 55 2 104 7 109 6 6 18 3 32 -7 13 -9
31 -16 39 -16 9 0 27 -11 39 -24 28 -30 96 -46 190 -46 76 0 98 11 107 55 9
48 -26 73 -148 101 -131 31 -153 40 -166 70 -7 13 -20 24 -30 24 -11 0 -27 10
-38 21 -17 19 -19 37 -19 149 0 139 5 154 56 165 17 4 44 22 61 41 29 31 62
47 128 58 14 3 75 2 135 0 84 -4 119 -10 150 -25z m-3681 8 c14 -10 16 -26 14
-92 l-3 -80 -120 -5 -120 -5 -5 -320 -5 -320 -105 0 -105 0 -3 323 -2 322
-109 0 c-96 0 -110 2 -115 18 -6 23 0 147 9 161 10 17 646 15 669 -2z m2444
-84 l3 -92 -113 -3 -113 -3 -3 -316 -2 -317 -31 -6 c-59 -11 -186 -7 -198 7
-7 9 -12 115 -13 323 l-3 309 -110 5 -110 5 -3 72 c-5 123 -35 114 356 111
l337 -3 3 -92z m-870 -25 l3 -77 92 -3 92 -3 0 -75 0 -75 -90 -5 -90 -5 -3
-136 c-1 -78 2 -148 8 -164 10 -27 11 -27 93 -24 l82 4 3 -72 c3 -71 2 -72
-27 -88 -37 -19 -168 -20 -226 -2 -45 13 -99 67 -134 132 -20 37 -22 52 -20
194 3 150 2 154 -19 162 -20 8 -27 25 -23 58 2 7 0 19 -3 27 -8 20 -58 -29
-72 -69 -6 -18 -26 -42 -45 -55 -20 -14 -39 -38 -47 -60 -7 -20 -16 -40 -21
-45 -13 -13 25 -85 76 -145 25 -29 48 -65 52 -80 4 -15 23 -37 42 -50 19 -13
34 -31 34 -40 0 -15 -15 -17 -117 -20 l-117 -3 -26 29 c-14 16 -36 49 -48 73
-28 56 -64 62 -81 13 -6 -18 -30 -50 -54 -73 l-42 -41 -100 0 c-92 0 -100 1
-100 19 0 29 35 84 69 109 19 14 34 37 41 62 8 30 21 47 50 65 55 35 55 74 1
129 -40 39 -52 59 -67 110 -6 21 -19 33 -44 41 -28 9 -36 18 -42 46 -12 57 -9
59 106 59 110 0 136 -9 136 -49 0 -9 13 -27 30 -39 16 -12 33 -34 36 -47 3
-14 8 -25 10 -25 13 0 80 88 87 114 5 17 14 34 20 38 7 4 74 8 149 8 l137 0
-6 34 c-3 19 -2 56 1 81 l7 46 102 -3 102 -3 3 -77z m-1102 -83 c57 -15 74
-27 74 -54 0 -7 10 -26 23 -41 12 -16 35 -49 50 -74 25 -41 28 -52 25 -123
l-3 -78 -203 -3 -203 -2 6 -33 c10 -46 36 -64 108 -72 89 -10 176 8 203 41 18
22 27 25 53 19 l32 -7 -3 -81 -3 -81 -34 -7 c-18 -4 -37 -12 -40 -18 -13 -21
-106 -41 -190 -41 -73 0 -93 4 -145 29 -34 16 -78 36 -98 44 -41 17 -61 48
-79 123 -7 27 -17 55 -22 62 -16 20 -12 137 6 174 8 18 18 52 22 76 6 37 12
45 46 62 21 11 45 33 54 50 11 22 24 31 53 35 20 4 44 8 52 10 43 9 166 3 216
-10z m2456 0 c10 -4 22 -22 28 -41 9 -27 18 -35 46 -40 19 -3 36 -10 39 -13 2
-4 12 -43 21 -87 19 -94 14 -242 -12 -319 -21 -62 -28 -71 -62 -80 -15 -3 -36
-14 -47 -24 -36 -32 -116 -55 -186 -54 -55 1 -75 7 -115 31 -27 16 -58 33 -69
36 -11 4 -41 34 -67 67 -44 57 -47 63 -53 145 -8 95 8 223 32 260 8 12 25 25
39 28 16 4 30 19 39 41 14 33 37 45 105 59 33 6 241 -1 262 -9z m1409 0 c9 -3
26 -24 38 -45 12 -22 29 -40 36 -40 22 0 31 -27 45 -132 25 -191 -17 -320
-124 -384 -27 -16 -55 -35 -62 -42 -21 -20 -115 -17 -162 6 l-41 20 -3 -107
-3 -106 -105 0 -105 0 0 415 0 415 102 3 c95 3 102 1 108 -18 6 -18 9 -19 22
-8 31 25 88 37 163 33 41 -2 82 -6 91 -10z m593 6 c41 -7 55 -16 97 -62 27
-30 52 -65 55 -79 3 -14 12 -40 20 -58 17 -40 19 -153 2 -170 -8 -8 -67 -12
-199 -12 l-187 0 14 -32 c9 -18 19 -40 23 -48 5 -9 31 -18 62 -22 90 -13 195
7 236 44 34 31 43 15 43 -77 0 -80 -1 -83 -25 -89 -14 -4 -25 -11 -25 -16 0
-6 -10 -10 -22 -10 -13 0 -36 -7 -52 -15 -19 -10 -58 -15 -116 -15 -58 0 -97
5 -116 15 -16 8 -37 15 -46 15 -9 0 -20 5 -23 11 -4 5 -31 21 -61 34 -30 13
-54 30 -54 37 0 7 -7 27 -16 43 -43 80 -56 216 -28 290 9 22 20 56 26 76 8 30
18 40 49 52 28 11 43 24 50 46 7 19 20 33 32 36 68 15 190 17 261 6z m692 -7
c13 -3 28 -21 37 -44 12 -31 22 -41 48 -48 31 -7 35 -13 41 -53 3 -24 7 -86 7
-136 l1 -93 -200 0 -200 0 0 -23 c0 -32 36 -63 89 -77 62 -16 188 -4 209 21
19 22 77 43 92 34 5 -3 10 -42 10 -85 0 -68 -3 -81 -19 -90 -11 -5 -27 -10
-36 -10 -9 0 -28 -9 -41 -19 -35 -28 -149 -45 -215 -32 -66 12 -109 28 -109
40 0 5 -20 14 -45 20 -33 8 -51 21 -71 49 -16 20 -34 43 -42 49 -42 35 -40
308 3 373 6 8 27 28 48 43 20 15 37 34 37 41 0 16 38 37 87 47 40 9 233 4 269
-7z m654 3 c74 -14 77 -19 79 -132 1 -82 -7 -93 -56 -76 -21 7 -45 20 -53 27
-9 7 -35 20 -58 28 -36 13 -46 13 -74 1 -51 -23 -67 -39 -83 -85 -20 -57 -19
-115 3 -173 26 -68 32 -72 122 -71 76 0 80 2 119 37 68 61 81 50 81 -68 0 -78
-3 -83 -60 -105 -19 -7 -42 -19 -51 -27 -18 -15 -194 -19 -203 -4 -3 5 -18 12
-33 16 -16 3 -35 13 -43 20 -8 7 -34 18 -56 24 -42 11 -54 25 -54 62 0 10 -9
28 -20 39 -35 35 -50 88 -50 179 0 80 2 89 25 111 14 13 28 38 31 57 4 22 16
40 33 50 14 9 40 32 58 51 25 28 41 37 80 43 78 11 193 9 263 -4z"/>
<path d="M2106 2355 c-9 -9 -16 -22 -16 -28 0 -7 -3 -22 -6 -34 -6 -23 -5 -23
90 -23 107 0 112 4 73 61 -20 30 -28 34 -74 37 -36 2 -55 -2 -67 -13z"/>
<path d="M4570 2335 c-51 -37 -59 -60 -60 -155 0 -106 18 -150 69 -163 19 -4
50 -5 69 0 33 8 36 12 49 68 16 68 10 183 -13 226 -10 20 -56 49 -79 49 0 0
-17 -11 -35 -25z"/>
<path d="M5950 2327 l-35 -12 -3 -154 -3 -154 61 6 c33 3 68 11 76 18 32 26
48 74 48 144 1 97 -7 117 -53 143 -44 25 -44 25 -91 9z"/>
<path d="M6594 2353 c-3 -10 -11 -30 -19 -45 -7 -14 -11 -29 -7 -32 7 -8 157
-8 165 0 4 4 0 19 -7 33 -8 14 -17 34 -20 44 -4 13 -17 17 -56 17 -40 0 -52
-4 -56 -17z"/>
<path d="M7231 2343 c-17 -16 -31 -37 -33 -48 -3 -19 3 -20 96 -23 l98 -3 -7
38 c-10 54 -21 63 -76 63 -39 0 -54 -5 -78 -27z"/>
</g>
</svg>
